<svg width="19" height="19" viewBox="0 0 19 19" fill="none" xmlns="http://www.w3.org/2000/svg">
<path fill-rule="evenodd" clip-rule="evenodd" d="M9.67266 0C8.02047 0.000389264 6.39802 0.436074 4.97118 1.26251C3.54434 2.08895 2.3643 3.27649 1.55168 4.70373C0.739074 6.13097 0.32305 7.74671 0.346145 9.38577C0.369239 11.0248 0.830622 12.6284 1.68313 14.0325L0 19L5.1655 17.3576C6.41146 18.0398 7.79824 18.4301 9.21968 18.4987C10.6411 18.5672 12.0595 18.3122 13.3663 17.753C14.6731 17.1939 15.8336 16.3455 16.7589 15.2728C17.6843 14.2001 18.35 12.9315 18.705 11.5642C19.0601 10.1969 19.0951 8.76715 18.8074 7.38437C18.5197 6.00158 17.9169 4.70245 17.0451 3.58642C16.1733 2.4704 15.0557 1.56709 13.7779 0.94564C12.5 0.32419 11.0958 0.00108264 9.67266 0.00105633V0ZM9.67266 16.957C8.15403 16.9602 6.66816 16.519 5.40092 15.6887L2.41816 16.6399L3.38863 13.7789C2.36697 12.3779 1.85029 10.6766 1.9218 8.94888C1.99331 7.22115 2.64884 5.56758 3.78283 4.25447C4.91683 2.94136 6.46327 2.04513 8.17312 1.71012C9.88297 1.37511 11.6567 1.62082 13.2087 2.40768C14.7607 3.19454 16.0005 4.47674 16.7286 6.04781C17.4568 7.61887 17.6307 9.38735 17.2225 11.0684C16.8143 12.7495 15.8477 14.2454 14.4783 15.3151C13.109 16.3848 11.4166 16.9661 9.67373 16.9655L9.67266 16.957ZM14.0467 11.3554C13.8123 11.2286 12.6618 10.6156 12.4488 10.5268C12.2357 10.438 12.0759 10.3947 11.9076 10.6251C11.7393 10.8555 11.2684 11.3702 11.1193 11.5224C10.9702 11.6746 10.8349 11.6894 10.6016 11.5626C9.90996 11.2593 9.27694 10.8387 8.73096 10.3196C8.22861 9.82262 7.80321 9.25453 7.46861 8.63386C7.33759 8.39289 7.46861 8.26923 7.59112 8.15614C7.71363 8.04305 7.83933 7.88875 7.96396 7.75558C8.06604 7.63983 8.15105 7.5103 8.21644 7.37086C8.25121 7.30727 8.26943 7.23606 8.26943 7.16371C8.26943 7.09135 8.25121 7.02015 8.21644 6.95655C8.16104 6.83607 7.72961 5.6555 7.54851 5.17567C7.36741 4.69583 7.16714 4.76665 7.02866 4.76136C6.89017 4.75608 6.73145 4.73071 6.57272 4.72543C6.45186 4.72385 6.33199 4.74718 6.22069 4.79394C6.10939 4.84069 6.00908 4.90985 5.9261 4.99705C5.6992 5.22534 5.06323 5.77388 5.01849 6.93647C4.97375 8.09907 5.78549 9.25321 5.89841 9.41492C6.01132 9.57662 7.44198 12.0973 9.82606 13.1299C12.2101 14.1625 12.224 13.8497 12.6618 13.8264C13.0996 13.8032 14.0914 13.3075 14.3109 12.7632C14.5303 12.2189 14.5473 11.7465 14.4919 11.646C14.4366 11.5456 14.28 11.4833 14.0467 11.3565V11.3554Z" fill="white"/>
</svg>
