<svg width="17" height="18" viewBox="0 0 17 18" fill="none" xmlns="http://www.w3.org/2000/svg">
<path d="M8.49998 1.62165C10.7696 1.62165 11.0384 1.6308 11.9347 1.6741C12.7634 1.71415 13.2135 1.86077 13.5131 1.98398C13.9098 2.14725 14.193 2.34231 14.4904 2.65723C14.7878 2.97215 14.972 3.272 15.1262 3.69206C15.2426 4.00923 15.3811 4.48577 15.4189 5.36323C15.4598 6.31228 15.4684 6.5969 15.4684 9.00002C15.4684 11.4031 15.4598 11.6878 15.4189 12.6368C15.3811 13.5143 15.2426 13.9908 15.1262 14.308C14.972 14.728 14.7878 15.0279 14.4904 15.3428C14.193 15.6577 13.9098 15.8528 13.5131 16.016C13.2135 16.1393 12.7634 16.2859 11.9347 16.3259C11.0385 16.3692 10.7697 16.3784 8.49998 16.3784C6.23024 16.3784 5.96143 16.3692 5.06527 16.3259C4.23653 16.2859 3.78646 16.1393 3.48694 16.016C3.09019 15.8528 2.807 15.6577 2.50957 15.3428C2.21215 15.0279 2.02792 14.728 1.87376 14.308C1.75736 13.9908 1.61888 13.5143 1.58106 12.6368C1.54017 11.6878 1.53153 11.4031 1.53153 9.00002C1.53153 6.5969 1.54017 6.31228 1.58106 5.36326C1.61888 4.48577 1.75736 4.00923 1.87376 3.69206C2.02792 3.272 2.21215 2.97215 2.50957 2.65723C2.807 2.34231 3.09019 2.14725 3.48694 1.98398C3.78646 1.86077 4.23653 1.71415 5.06524 1.6741C5.96156 1.6308 6.23037 1.62165 8.49998 1.62165ZM8.49998 0C6.1915 0 5.90208 0.0103604 4.99546 0.0541599C4.0907 0.097888 3.47284 0.250007 2.93214 0.472506C2.37319 0.702507 1.89917 1.01025 1.42663 1.51058C0.954089 2.01092 0.663445 2.51283 0.446222 3.10466C0.236084 3.67716 0.0924161 4.33137 0.0511173 5.28935C0.00975109 6.24926 0 6.55575 0 9.00002C0 11.4443 0.00975109 11.7508 0.0511173 12.7107C0.0924161 13.6687 0.236084 14.3229 0.446222 14.8954C0.663445 15.4872 0.954089 15.9891 1.42663 16.4895C1.89917 16.9898 2.37319 17.2975 2.93214 17.5275C3.47284 17.75 4.0907 17.9021 4.99546 17.9459C5.90208 17.9897 6.1915 18 8.49998 18C10.8085 18 11.0979 17.9897 12.0045 17.9459C12.9093 17.9021 13.5271 17.75 14.0678 17.5275C14.6268 17.2975 15.1008 16.9898 15.5733 16.4895C16.0459 15.9891 16.3365 15.4872 16.5537 14.8954C16.7639 14.3229 16.9076 13.6687 16.9488 12.7107C16.9902 11.7508 17 11.4443 17 9.00002C17 6.55575 16.9902 6.24926 16.9488 5.28935C16.9076 4.33137 16.7639 3.67716 16.5537 3.10466C16.3365 2.51283 16.0459 2.01092 15.5733 1.51058C15.1008 1.01025 14.6268 0.702507 14.0678 0.472506C13.5271 0.250007 12.9093 0.097888 12.0045 0.0541599C11.0979 0.0103604 10.8085 0 8.49998 0ZM8.49998 4.37838C6.08934 4.37838 4.1351 6.44757 4.1351 9.00002C4.1351 11.5525 6.08934 13.6217 8.49998 13.6217C10.9106 13.6217 12.8649 11.5525 12.8649 9.00002C12.8649 6.44757 10.9106 4.37838 8.49998 4.37838ZM8.49998 12C6.93519 12 5.66663 10.6569 5.66663 9.00002C5.66663 7.34317 6.93519 6 8.49998 6C10.0648 6 11.3333 7.34317 11.3333 9.00002C11.3333 10.6569 10.0648 12 8.49998 12ZM14.0573 4.19579C14.0573 4.79226 13.6006 5.27581 13.0373 5.27581C12.474 5.27581 12.0173 4.79226 12.0173 4.19579C12.0173 3.59931 12.474 3.1158 13.0373 3.1158C13.6006 3.1158 14.0573 3.59931 14.0573 4.19579Z" fill="white"/>
</svg>
